<svg width="235" height="100" viewBox="0 0 235 100" fill="none" xmlns="http://www.w3.org/2000/svg">
<g filter="url(#filter0_d_3_5803)">
<path d="M17.3758 60.3718C13.3758 63.9718 19.0424 64.8718 22.3758 64.8718C162.376 80.3718 217.876 64.8718 218.876 60.3718C219.876 55.8718 212.876 55.8718 201.376 52.8718C198.376 40.8718 182.876 42.8718 179.376 45.8718C175.876 48.8718 169.376 54.8718 166.876 49.3718C164.376 43.8718 159.876 41.8718 146.876 42.8718C133.876 43.8718 134.876 42.8718 134.376 25.8718C133.976 12.2718 115.876 5.87182 106.876 4.37182C95.8758 2.53849 72.7758 6.57182 68.3758 37.3718C49.8758 27.8718 24.8758 44.3718 25.8758 49.3718C26.8758 54.3718 22.3758 55.8718 17.3758 60.3718Z" fill="#EBEBEB"/>
</g>
<defs>
<filter id="filter0_d_3_5803" x="0" y="0" width="234.97" height="99.6049" filterUnits="userSpaceOnUse" color-interpolation-filters="sRGB">
<feFlood flood-opacity="0" result="BackgroundImageFix"/>
<feColorMatrix in="SourceAlpha" type="matrix" values="0 0 0 0 0 0 0 0 0 0 0 0 0 0 0 0 0 0 127 0" result="hardAlpha"/>
<feOffset dy="12"/>
<feGaussianBlur stdDeviation="8"/>
<feComposite in2="hardAlpha" operator="out"/>
<feColorMatrix type="matrix" values="0 0 0 0 0.624896 0 0 0 0 0.492188 0 0 0 0 0.729167 0 0 0 0.25 0"/>
<feBlend mode="normal" in2="BackgroundImageFix" result="effect1_dropShadow_3_5803"/>
<feBlend mode="normal" in="SourceGraphic" in2="effect1_dropShadow_3_5803" result="shape"/>
</filter>
</defs>
</svg>
